<?xml version="1.0" encoding="UTF-8"?>
<svg version="1.1" xmlns="http://www.w3.org/2000/svg" width="200" height="200">
<path d="M0 0 C2.43046038 1.63352322 2.43046038 1.63352322 5.19140625 2.6015625 C8.25866939 3.87783809 8.84901945 5.72706507 10.47265625 8.55078125 C11.17390625 8.90140625 11.87515625 9.25203125 12.59765625 9.61328125 C13.21640625 9.92265625 13.83515625 10.23203125 14.47265625 10.55078125 C14.83427654 11.8767223 15.16993664 13.21016582 15.47265625 14.55078125 C16.46265625 14.88078125 17.45265625 15.21078125 18.47265625 15.55078125 C20.04296875 17.6953125 20.04296875 17.6953125 21.59765625 20.36328125 C22.11585938 21.23597656 22.6340625 22.10867187 23.16796875 23.0078125 C24.31969685 25.25264781 24.91341431 27.11860641 25.47265625 29.55078125 C25.96765625 30.21078125 26.46265625 30.87078125 26.97265625 31.55078125 C28.53074864 33.62823777 28.93165612 35.05385755 29.47265625 37.55078125 C27.67139282 38.14705322 27.67139282 38.14705322 25.83374023 38.75537109 C20.0884626 40.67085958 14.36173799 42.63956858 8.63509369 44.6099453 C6.63547032 45.29793297 4.63566108 45.98537797 2.63580322 46.67268372 C-0.23856166 47.66055019 -3.11287548 48.64856498 -5.9871521 49.63668823 C-28.7193696 57.45094025 -51.45665487 65.24993468 -74.21484375 72.98828125 C-75.67807571 73.48621185 -75.67807571 73.48621185 -77.17086792 73.99420166 C-91.60379377 78.90440558 -106.05973674 83.74376633 -120.52734375 88.55078125 C-123.27611481 85.80201019 -124.49749389 84.31195275 -124.65234375 80.36328125 C-124.61109375 79.43515625 -124.56984375 78.50703125 -124.52734375 77.55078125 C-124.85734375 77.55078125 -125.18734375 77.55078125 -125.52734375 77.55078125 C-125.52734375 69.96078125 -125.52734375 62.37078125 -125.52734375 54.55078125 C-124.53734375 54.05578125 -124.53734375 54.05578125 -123.52734375 53.55078125 C-123.52734375 50.91078125 -123.52734375 48.27078125 -123.52734375 45.55078125 C-122.40803467 45.18952148 -121.28872559 44.82826172 -120.13549805 44.45605469 C-95.18060608 36.3954082 -70.29883967 28.15926444 -45.52734375 19.55078125 C-46.18100976 15.93397858 -46.96513649 13.48312341 -49.02734375 10.42578125 C-50.6212621 8.04417069 -51.60901046 6.30578111 -52.52734375 3.55078125 C-53.18734375 3.22078125 -53.84734375 2.89078125 -54.52734375 2.55078125 C-54.63046875 1.95265625 -54.73359375 1.35453125 -54.83984375 0.73828125 C-56.02207048 -3.02334925 -59.22297598 -4.64976754 -62.46484375 -6.63671875 C-65.11053955 -7.67896255 -67.71794603 -8.06611906 -70.52734375 -8.44921875 C-70.52734375 -9.10921875 -70.52734375 -9.76921875 -70.52734375 -10.44921875 C-45.17863506 -15.07811338 -22.10712105 -15.03817737 0 0 Z M26.47265625 33.55078125 C27.47265625 35.55078125 27.47265625 35.55078125 27.47265625 35.55078125 Z M-122.52734375 46.55078125 C-121.52734375 49.55078125 -121.52734375 49.55078125 -121.52734375 49.55078125 Z M-123.52734375 78.55078125 C-122.52734375 82.55078125 -122.52734375 82.55078125 -122.52734375 82.55078125 Z " fill="#89E5EA" transform="translate(148.52734375,27.44921875)"/>
<path d="M0 0 C0.62893546 11.02384099 -1.13262301 20.42654736 -4 31 C-4.66 31 -5.32 31 -6 31 C-7.3988292 35.59905206 -7.3988292 35.59905206 -8.25 40.3125 C-8.4975 40.869375 -8.745 41.42625 -9 42 C-10.98139111 42.72009284 -12.98692582 43.37391952 -15 44 C-17.62387805 44.93570791 -20.24475356 45.87771963 -22.86328125 46.828125 C-23.61353073 47.09961365 -24.36378021 47.37110229 -25.13676453 47.65081787 C-27.5289356 48.51649787 -29.92075787 49.38313566 -32.3125 50.25 C-44.18955191 54.55436878 -56.08057031 58.81427571 -68 63 C-67.74556122 63.50887756 -67.49112244 64.01775513 -67.22897339 64.54205322 C-60 79 -60 79 -59.01123047 81.16503906 C-57.73221292 83.4859217 -56.41681011 84.03327595 -54 85 C-59.28504642 90.28504642 -72.89713447 90.20970898 -80.0625 90.375 C-99.32780114 89.86627219 -116.12776648 83.2350444 -131.2109375 71.296875 C-132.98919565 69.9226257 -132.98919565 69.9226257 -135.1640625 68.984375 C-137.76832205 67.5880486 -137.92808085 65.67979789 -139 63 C-141.01669827 61.86649466 -141.01669827 61.86649466 -143 61 C-143.495 59.515 -143.495 59.515 -144 58 C-144.639375 57.38125 -145.27875 56.7625 -145.9375 56.125 C-148.16409907 53.83092823 -148.90905723 51.96462474 -150 49 C-149.13463623 48.71503662 -148.26927246 48.43007324 -147.37768555 48.13647461 C-128.56906354 41.93158103 -109.82013429 35.57880604 -91.13241577 29.01861572 C-72.03457708 22.31845859 -52.86960022 15.81982569 -33.69433594 9.34545898 C-32.53407898 8.95327179 -31.37382202 8.56108459 -30.17840576 8.15701294 C-28.01478203 7.42583312 -25.85079019 6.69574116 -23.68634033 5.9670105 C-22.21158234 5.46864182 -22.21158234 5.46864182 -20.70703125 4.96020508 C-19.7629541 4.64201813 -18.81887695 4.32383118 -17.84619141 3.9960022 C-15.87311804 3.30554076 -13.91224141 2.57959949 -11.96240234 1.82601929 C-10.98867676 1.44990509 -10.01495117 1.07379089 -9.01171875 0.6862793 C-8.14377686 0.33969772 -7.27583496 -0.00688385 -6.3815918 -0.3639679 C-3.79726774 -1.05414204 -2.48654752 -0.89243896 0 0 Z M-3 14 C-3 15.98 -3 17.96 -3 20 C-2.67 20 -2.34 20 -2 20 C-2 18.02 -2 16.04 -2 14 C-2.33 14 -2.66 14 -3 14 Z M-4 21 C-3 24 -3 24 -3 24 Z M-5 25 C-4 28 -4 28 -4 28 Z " fill="#42A5FD" transform="translate(183,85)"/>
<path d="M0 0 C2.43046038 1.63352322 2.43046038 1.63352322 5.19140625 2.6015625 C8.25866939 3.87783809 8.84901945 5.72706507 10.47265625 8.55078125 C11.52453125 9.07671875 11.52453125 9.07671875 12.59765625 9.61328125 C13.21640625 9.92265625 13.83515625 10.23203125 14.47265625 10.55078125 C14.83427654 11.8767223 15.16993664 13.21016582 15.47265625 14.55078125 C16.95765625 15.04578125 16.95765625 15.04578125 18.47265625 15.55078125 C20.04296875 17.6953125 20.04296875 17.6953125 21.59765625 20.36328125 C22.37496094 21.67232422 22.37496094 21.67232422 23.16796875 23.0078125 C24.31969685 25.25264781 24.91341431 27.11860641 25.47265625 29.55078125 C25.96765625 30.21078125 26.46265625 30.87078125 26.97265625 31.55078125 C28.53074864 33.62823777 28.93165612 35.05385755 29.47265625 37.55078125 C28.9402533 37.72587723 28.40785034 37.90097321 27.85931396 38.08137512 C21.99936702 40.0201637 16.17817285 42.0555623 10.36328125 44.125 C8.45588257 44.79926223 6.5483258 45.47307741 4.640625 46.14648438 C1.66798119 47.19595732 -1.30375018 48.24770105 -4.27294922 49.30688477 C-7.16253059 50.33684162 -10.05547436 51.35680795 -12.94921875 52.375 C-13.83575134 52.69369553 -14.72228394 53.01239105 -15.63568115 53.34074402 C-16.46714661 53.63137222 -17.29861206 53.92200043 -18.15527344 54.22143555 C-18.88091492 54.47886032 -19.6065564 54.7362851 -20.35418701 55.00151062 C-22.81205322 55.62274226 -25.00212234 55.64500206 -27.52734375 55.55078125 C-27.70273682 54.99841797 -27.87812988 54.44605469 -28.05883789 53.87695312 C-31.13485712 44.25530049 -34.25951178 34.66533365 -38.21484375 25.36328125 C-38.48756104 24.69941406 -38.76027832 24.03554688 -39.04125977 23.3515625 C-40.68593513 19.60929424 -41.84901597 18.18078533 -45.52734375 16.55078125 C-47.1953125 14.2734375 -47.1953125 14.2734375 -48.71484375 11.61328125 C-49.22402344 10.73800781 -49.73320313 9.86273438 -50.2578125 8.9609375 C-51.52734375 6.55078125 -51.52734375 6.55078125 -52.52734375 3.55078125 C-53.18734375 3.22078125 -53.84734375 2.89078125 -54.52734375 2.55078125 C-54.63046875 1.95265625 -54.73359375 1.35453125 -54.83984375 0.73828125 C-56.02207048 -3.02334925 -59.22297598 -4.64976754 -62.46484375 -6.63671875 C-65.11053955 -7.67896255 -67.71794603 -8.06611906 -70.52734375 -8.44921875 C-70.52734375 -9.10921875 -70.52734375 -9.76921875 -70.52734375 -10.44921875 C-45.17863506 -15.07811338 -22.10712105 -15.03817737 0 0 Z M26.47265625 33.55078125 C27.47265625 35.55078125 27.47265625 35.55078125 27.47265625 35.55078125 Z " fill="#45D0D6" transform="translate(148.52734375,27.44921875)"/>
<path d="M0 0 C0.62893546 11.02384099 -1.13262301 20.42654736 -4 31 C-4.66 31 -5.32 31 -6 31 C-7.3988292 35.59905206 -7.3988292 35.59905206 -8.25 40.3125 C-8.4975 40.869375 -8.745 41.42625 -9 42 C-10.98139111 42.72009284 -12.98692582 43.37391952 -15 44 C-17.62387805 44.93570791 -20.24475356 45.87771963 -22.86328125 46.828125 C-23.61353073 47.09961365 -24.36378021 47.37110229 -25.13676453 47.65081787 C-27.5289356 48.51649787 -29.92075787 49.38313566 -32.3125 50.25 C-33.87562024 50.81649125 -35.43877105 51.38289816 -37.00195312 51.94921875 C-37.77368866 52.22882446 -38.54542419 52.50843018 -39.34054565 52.79650879 C-41.671942 53.63923723 -44.00511039 54.47692439 -46.33837891 55.31445312 C-49.49628559 56.44969009 -52.64194531 57.61314597 -55.78271484 58.79492188 C-57.30693209 59.35816507 -58.83118209 59.92131966 -60.35546875 60.484375 C-61.05215164 60.75284241 -61.74883453 61.02130981 -62.46662903 61.2979126 C-66.28315818 62.69216913 -69.19299735 63.74058713 -73 62 C-74.45385742 59.64257812 -74.45385742 59.64257812 -75.60546875 56.53125 C-76.03150391 55.40203125 -76.45753906 54.2728125 -76.89648438 53.109375 C-77.32251953 51.91828125 -77.74855469 50.7271875 -78.1875 49.5 C-78.62513672 48.33984375 -79.06277344 47.1796875 -79.51367188 45.984375 C-81.84046576 39.7038077 -83.64422517 33.55131181 -85 27 C-83.86087158 26.61368408 -82.72174316 26.22736816 -81.5480957 25.8293457 C-77.13274179 24.33130886 -72.71821156 22.83085714 -68.30395508 21.32958984 C-66.31355287 20.65285634 -64.32299349 19.97658495 -62.33227539 19.30078125 C-51.52240544 15.62980321 -40.72651497 11.9285428 -29.98046875 8.07421875 C-29.12657059 7.76905838 -28.27267242 7.46389801 -27.39289856 7.14949036 C-23.3499217 5.70415123 -19.31124391 4.24848394 -15.27856445 2.7746582 C-13.83170811 2.25556161 -12.38469566 1.73689985 -10.9375 1.21875 C-10.28843185 0.97682419 -9.63936371 0.73489838 -8.97062683 0.48564148 C-5.63744602 -0.69462055 -3.3521538 -1.36677593 0 0 Z M-3 14 C-3 15.98 -3 17.96 -3 20 C-2.67 20 -2.34 20 -2 20 C-2 18.02 -2 16.04 -2 14 C-2.33 14 -2.66 14 -3 14 Z M-4 21 C-3 24 -3 24 -3 24 Z M-5 25 C-4 28 -4 28 -4 28 Z " fill="#8AC2FC" transform="translate(183,85)"/>
<path d="M0 0 C2.20142512 1.80452248 2.31713575 2.81538891 2.86328125 5.52734375 C-2.77830204 7.50313301 -8.41998728 9.47863079 -14.06176758 11.45385742 C-15.98139207 12.12597757 -17.90098859 12.79817765 -19.82055664 13.47045898 C-22.57821433 14.43624502 -25.33597221 15.40174447 -28.09375 16.3671875 C-28.95321732 16.66825912 -29.81268463 16.96933075 -30.69819641 17.27952576 C-31.4987999 17.55974075 -32.29940338 17.83995575 -33.12426758 18.12866211 C-33.82820145 18.37514999 -34.53213531 18.62163788 -35.25740051 18.87559509 C-40.08619325 20.55022322 -40.08619325 20.55022322 -42.62109375 19.40234375 C-45.39898445 17.33186621 -46.68959571 15.52857186 -48.38671875 12.52734375 C-49.13695312 11.22796875 -49.13695312 11.22796875 -49.90234375 9.90234375 C-51.13671875 7.52734375 -51.13671875 7.52734375 -52.13671875 4.52734375 C-52.79671875 4.19734375 -53.45671875 3.86734375 -54.13671875 3.52734375 C-54.23984375 2.92921875 -54.34296875 2.33109375 -54.44921875 1.71484375 C-55.63144548 -2.04678675 -58.83235098 -3.67320504 -62.07421875 -5.66015625 C-64.71991455 -6.70240005 -67.32732103 -7.08955656 -70.13671875 -7.47265625 C-70.13671875 -8.13265625 -70.13671875 -8.79265625 -70.13671875 -9.47265625 C-44.63576418 -14.1293523 -22.99160858 -13.23759282 0 0 Z " fill="#0ABEC7" transform="translate(148.13671875,26.47265625)"/>
<path d="M0 0 C1.73927287 2.48596071 2.98393395 4.60565079 4.25 7.3125 C4.58773437 7.98990234 4.92546875 8.66730469 5.2734375 9.36523438 C6.59413426 12.02482648 7.86388737 14.70315863 9.1015625 17.40234375 C10.3120912 19.55497958 11.75290518 20.10116207 14 21 C8.71495358 26.28504642 -4.89713447 26.20970898 -12.0625 26.375 C-23.83467255 26.06413896 -36.7529778 24.07779979 -47 18 C-47.33 17.01 -47.66 16.02 -48 15 C-42.71581389 11.71772108 -37.64004677 9.74533634 -31.6875 8 C-24.97669238 5.96208894 -18.46519845 3.72975046 -12 1 C-7.48290585 -0.8242111 -4.7060868 -1.52115937 0 0 Z " fill="#1084FB" transform="translate(115,149)"/>
<path d="M0 0 C-0.99 1.485 -0.99 1.485 -2 3 C-1.56115412 13.97114697 4.863488 22.66478781 12.0625 30.4375 C14.92901185 32.93807417 16.27011103 33.78059477 20 34 C17.67568382 36.32431618 16.11067742 36.75875528 12.9921875 37.7265625 C12.00605469 38.0359375 11.01992188 38.3453125 10.00390625 38.6640625 C8.97136719 38.98117188 7.93882813 39.29828125 6.875 39.625 C5.31458984 40.11226562 5.31458984 40.11226562 3.72265625 40.609375 C1.15011263 41.4118198 -1.42409194 42.20843503 -4 43 C-6.74877106 40.25122894 -7.97015014 38.7611715 -8.125 34.8125 C-8.08375 33.884375 -8.0425 32.95625 -8 32 C-8.33 32 -8.66 32 -9 32 C-9 24.41 -9 16.82 -9 9 C-8.34 8.67 -7.68 8.34 -7 8 C-7 5.36 -7 2.72 -7 0 C-3.98968256 -0.93423645 -3.13349732 -1.04449911 0 0 Z M-6 1 C-5 4 -5 4 -5 4 Z M-7 33 C-6 37 -6 37 -6 37 Z " fill="#B3EDEF" transform="translate(32,73)"/>
<path d="M0 0 C0.62893546 11.02384099 -1.13262301 20.42654736 -4 31 C-4.66 31 -5.32 31 -6 31 C-6.99 33.64 -7.98 36.28 -9 39 C-9.33 39 -9.66 39 -10 39 C-9.95359375 37.90042969 -9.9071875 36.80085938 -9.859375 35.66796875 C-9.59371171 26.57775358 -10.09321423 19.38390523 -14 11 C-14.6738719 9.33623352 -15.34253451 7.67031774 -16 6 C-17.19625 6.495 -18.3925 6.99 -19.625 7.5 C-23.21101476 8.85911235 -26.13404799 9.2899464 -30 9 C-25.53709391 6.02472928 -20.60463168 4.57955899 -15.5625 2.8125 C-14.51255859 2.43158203 -13.46261719 2.05066406 -12.38085938 1.65820312 C-11.36958984 1.30306641 -10.35832031 0.94792969 -9.31640625 0.58203125 C-8.39287354 0.25436768 -7.46934082 -0.0732959 -6.51782227 -0.41088867 C-3.88306035 -1.02736113 -2.51565057 -0.90336566 0 0 Z M-3 14 C-3 15.98 -3 17.96 -3 20 C-2.67 20 -2.34 20 -2 20 C-2 18.02 -2 16.04 -2 14 C-2.33 14 -2.66 14 -3 14 Z M-4 21 C-3 24 -3 24 -3 24 Z M-5 25 C-4 28 -4 28 -4 28 Z " fill="#B2D5F9" transform="translate(183,85)"/>
<path d="M0 0 C-3.81302413 1.44368904 -6.09767141 0.46931007 -9.8359375 -0.90625 C-17.19418569 -3.29382144 -23.93680287 -3.5980429 -31.625 -3.5 C-33.50251953 -3.52320313 -33.50251953 -3.52320313 -35.41796875 -3.546875 C-37.21041016 -3.53914063 -37.21041016 -3.53914063 -39.0390625 -3.53125 C-40.11365723 -3.52673828 -41.18825195 -3.52222656 -42.29541016 -3.51757812 C-45.54311375 -3.210523 -45.54311375 -3.210523 -48 1 C-51.3 0.34 -54.6 -0.32 -58 -1 C-58 -1.66 -58 -2.32 -58 -3 C-38.11193963 -6.63173276 -19.07116613 -8.17335691 0 0 Z " fill="#6CD8DB" transform="translate(136,20)"/>
<path d="M0 0 C1.97597598 20.53603604 1.97597598 20.53603604 -1 25 C-1.66 24.67 -2.32 24.34 -3 24 C-3 16.41 -3 8.82 -3 1 C-1 0 -1 0 0 0 Z " fill="#D1F1F1" transform="translate(26,81)"/>
<path d="M0 0 C0.66 0.33 1.32 0.66 2 1 C2.625 4.0625 2.625 4.0625 3 7 C2.34 7 1.68 7 1 7 C0.01 9.64 -0.98 12.28 -2 15 C-2.33 15 -2.66 15 -3 15 C-2.67 11.37 -2.34 7.74 -2 4 C-1.34 4 -0.68 4 0 4 C0 2.68 0 1.36 0 0 Z " fill="#C3E1FA" transform="translate(176,109)"/>
<path d="M0 0 C-5.9090164 3.71423888 -9.92696065 5.27737409 -17 5 C-13.97546033 2.98364022 -11.36924652 1.96753498 -7.9375 0.8125 C-6.87402344 0.44769531 -5.81054688 0.08289063 -4.71484375 -0.29296875 C-2 -1 -2 -1 0 0 Z " fill="#AFD8F2" transform="translate(123,105)"/>
<path d="M0 0 C-5.34532193 3.56354796 -10.49939519 5.48754536 -17 5 C-14.15819378 3.10546252 -11.68435185 1.99807186 -8.5 0.8125 C-7.5409375 0.44769531 -6.581875 0.08289062 -5.59375 -0.29296875 C-3 -1 -3 -1 0 0 Z " fill="#ABF2F5" transform="translate(85,55)"/>
<path d="M0 0 C3.96 0 7.92 0 12 0 C11.34 1.32 10.68 2.64 10 4 C6.7 3.34 3.4 2.68 0 2 C0 1.34 0 0.68 0 0 Z " fill="#51CACD" transform="translate(78,17)"/>
<path d="M0 0 C-2.93828597 2.50298434 -5.17902761 3.46930939 -9 4 C-9.33 3.34 -9.66 2.68 -10 2 C-8.71211992 1.46987262 -7.41953322 0.9511671 -6.125 0.4375 C-5.40570313 0.14746094 -4.68640625 -0.14257812 -3.9453125 -0.44140625 C-2 -1 -2 -1 0 0 Z " fill="#CBE5F8" transform="translate(175,87)"/>
<path d="M0 0 C1.32 0.33 2.64 0.66 4 1 C1.60236815 3.39763185 0.66726502 3.34280586 -2.625 3.625 C-3.44226563 3.69976562 -4.25953125 3.77453125 -5.1015625 3.8515625 C-5.72804688 3.90054688 -6.35453125 3.94953125 -7 4 C-4 2 -4 2 0 2 C0 1.34 0 0.68 0 0 Z " fill="#7FCEF8" transform="translate(125,169)"/>
<path d="M0 0 C5.28 0 10.56 0 16 0 C16 0.33 16 0.66 16 1 C10.72 1 5.44 1 0 1 C0 0.67 0 0.34 0 0 Z " fill="#91EFEF" transform="translate(97,12)"/>
<path d="M0 0 C4.62 0 9.24 0 14 0 C14 0.33 14 0.66 14 1 C9.38 1 4.76 1 0 1 C0 0.67 0 0.34 0 0 Z " fill="#ACF5FF" transform="translate(96,176)"/>
<path d="M0 0 C0.33 0 0.66 0 1 0 C1 2.64 1 5.28 1 8 C0.67 8 0.34 8 0 8 C0 5.36 0 2.72 0 0 Z " fill="#FFFFFF" transform="translate(22,89)"/>
<path d="M0 0 C2.31 0 4.62 0 7 0 C7 0.33 7 0.66 7 1 C4.69 1 2.38 1 0 1 C0 0.67 0 0.34 0 0 Z " fill="#4B7FFF" transform="translate(111,175)"/>
<path d="M0 0 C2.31 0 4.62 0 7 0 C7 0.33 7 0.66 7 1 C4.69 1 2.38 1 0 1 C0 0.67 0 0.34 0 0 Z " fill="#54CECE" transform="translate(89,13)"/>
<path d="M0 0 C1.98 0 3.96 0 6 0 C6 0.33 6 0.66 6 1 C4.02 1 2.04 1 0 1 C0 0.67 0 0.34 0 0 Z " fill="#54A2F4" transform="translate(89,175)"/>
<path d="M0 0 C1.98 0 3.96 0 6 0 C6 0.33 6 0.66 6 1 C4.02 1 2.04 1 0 1 C0 0.67 0 0.34 0 0 Z " fill="#58CDCD" transform="translate(114,13)"/>
<path d="M0 0 C1.65 0 3.3 0 5 0 C5 0.33 5 0.66 5 1 C3.35 1 1.7 1 0 1 C0 0.67 0 0.34 0 0 Z " fill="#59CBCB" transform="translate(120,14)"/>
<path d="M0 0 C1.65 0 3.3 0 5 0 C5 0.33 5 0.66 5 1 C3.35 1 1.7 1 0 1 C0 0.67 0 0.34 0 0 Z " fill="#83D0E1" transform="translate(83,14)"/>
<path d="M0 0 C4 1 4 1 4 1 Z " fill="#356AFF" transform="translate(118,174)"/>
<path d="M0 0 C4 1 4 1 4 1 Z " fill="#649FFF" transform="translate(84,174)"/>
<path d="M0 0 C4 1 4 1 4 1 Z " fill="#648AE9" transform="translate(80,173)"/>
<path d="M0 0 C1 4 1 4 1 4 Z " fill="#C9EFEF" transform="translate(24,77)"/>
<path d="M0 0 C4 1 4 1 4 1 Z " fill="#3AAFBF" transform="translate(80,20)"/>
<path d="M0 0 C3 1 3 1 3 1 Z " fill="#71AAFF" transform="translate(123,173)"/>
<path d="M0 0 C3 1 3 1 3 1 Z " fill="#71AAFF" transform="translate(77,172)"/>
<path d="M0 0 C3 1 3 1 3 1 Z " fill="#71AAFF" transform="translate(74,171)"/>
<path d="M0 0 C0.66 0.66 1.32 1.32 2 2 C1.34 2 0.68 2 0 2 C0 1.34 0 0.68 0 0 Z " fill="#15A9AA" transform="translate(50,155)"/>
<path d="M0 0 C3 1 3 1 3 1 Z " fill="#B8D4FF" transform="translate(115,148)"/>
<path d="M0 0 C3 1 3 1 3 1 Z " fill="#AAC6FF" transform="translate(118,147)"/>
<path d="M0 0 C3 1 3 1 3 1 Z " fill="#AAC6FF" transform="translate(121,146)"/>
<path d="M0 0 C3 1 3 1 3 1 Z " fill="#63CDFF" transform="translate(124,145)"/>
<path d="M0 0 C3 1 3 1 3 1 Z " fill="#546AD4" transform="translate(129,143)"/>
<path d="M0 0 C3 1 3 1 3 1 Z " fill="#7FBFE9" transform="translate(132,142)"/>
<path d="M0 0 C3 1 3 1 3 1 Z " fill="#8DC6FF" transform="translate(135,141)"/>
<path d="M0 0 C3 1 3 1 3 1 Z " fill="#5571FF" transform="translate(138,140)"/>
<path d="M0 0 C3 1 3 1 3 1 Z " fill="#8DB8FF" transform="translate(146,137)"/>
<path d="M0 0 C3 1 3 1 3 1 Z " fill="#AAE2FF" transform="translate(149,136)"/>
<path d="M0 0 C3 1 3 1 3 1 Z " fill="#7F94FF" transform="translate(157,133)"/>
<path d="M0 0 C3 1 3 1 3 1 Z " fill="#AAE2FF" transform="translate(160,132)"/>
<path d="M0 0 C3 1 3 1 3 1 Z " fill="#55C6FF" transform="translate(163,131)"/>
<path d="M0 0 C3 1 3 1 3 1 Z " fill="#3871E2" transform="translate(42,129)"/>
<path d="M0 0 C3 1 3 1 3 1 Z " fill="#71C6FF" transform="translate(45,128)"/>
<path d="M0 0 C3 1 3 1 3 1 Z " fill="#8DE2FF" transform="translate(48,127)"/>
<path d="M0 0 C3 1 3 1 3 1 Z " fill="#71B8FF" transform="translate(51,126)"/>
<path d="M0 0 C3 1 3 1 3 1 Z " fill="#71B8FF" transform="translate(54,125)"/>
<path d="M0 0 C3 1 3 1 3 1 Z " fill="#3F94FF" transform="translate(57,124)"/>
<path d="M0 0 C3 1 3 1 3 1 Z " fill="#38C6FF" transform="translate(71,119)"/>
<path d="M0 0 C3 1 3 1 3 1 Z " fill="#71C6FF" transform="translate(74,118)"/>
<path d="" fill="#CDCDFF" transform="translate(0,0)"/>
<path d="M0 0 C3 1 3 1 3 1 Z " fill="#8DC6FF" transform="translate(77,117)"/>
<path d="M0 0 C3 1 3 1 3 1 Z " fill="#8DC6FF" transform="translate(80,116)"/>
<path d="M0 0 C3 1 3 1 3 1 Z " fill="#7FBFE9" transform="translate(83,115)"/>
<path d="M0 0 C3 1 3 1 3 1 Z " fill="#94A9D4" transform="translate(32,115)"/>
<path d="M0 0 C3 1 3 1 3 1 Z " fill="#3F7FE9" transform="translate(86,114)"/>
<path d="M0 0 C3 1 3 1 3 1 Z " fill="#B8FFFF" transform="translate(35,114)"/>
<path d="M0 0 C3 1 3 1 3 1 Z " fill="#3F6AFF" transform="translate(89,113)"/>
<path d="M0 0 C3 1 3 1 3 1 Z " fill="#E2FFFF" transform="translate(38,113)"/>
<path d="M0 0 C3 1 3 1 3 1 Z " fill="#3F94FF" transform="translate(92,112)"/>
<path d="M0 0 C3 1 3 1 3 1 Z " fill="#C6FFFF" transform="translate(41,112)"/>
<path d="M0 0 C3 1 3 1 3 1 Z " fill="#B8E9E9" transform="translate(44,111)"/>
<path d="M0 0 C3 1 3 1 3 1 Z " fill="#5494FF" transform="translate(98,110)"/>
<path d="M0 0 C3 1 3 1 3 1 Z " fill="#E9FFFF" transform="translate(47,110)"/>
<path d="M0 0 C3 1 3 1 3 1 Z " fill="#D4E9FF" transform="translate(109,106)"/>
<path d="M0 0 C3 1 3 1 3 1 Z " fill="#54BFBF" transform="translate(58,106)"/>
<path d="M0 0 C3 1 3 1 3 1 Z " fill="#8DAAFF" transform="translate(112,105)"/>
<path d="M0 0 C3 1 3 1 3 1 Z " fill="#7FBFBF" transform="translate(61,105)"/>
<path d="M0 0 C3 1 3 1 3 1 Z " fill="#63E9FF" transform="translate(115,104)"/>
<path d="M0 0 C3 1 3 1 3 1 Z " fill="#8DFFFF" transform="translate(64,104)"/>
<path d="M0 0 C3 1 3 1 3 1 Z " fill="#B8E9FF" transform="translate(118,103)"/>
<path d="M0 0 C3 1 3 1 3 1 Z " fill="#AAFFFF" transform="translate(67,103)"/>
<path d="M0 0 C3 1 3 1 3 1 Z " fill="#C6C6FF" transform="translate(121,102)"/>
<path d="M0 0 C3 1 3 1 3 1 Z " fill="#AAFFFF" transform="translate(70,102)"/>
<path d="M0 0 C3 1 3 1 3 1 Z " fill="#AAC6FF" transform="translate(124,101)"/>
<path d="M0 0 C3 1 3 1 3 1 Z " fill="#71FFFF" transform="translate(73,101)"/>
<path d="M0 0 C3 1 3 1 3 1 Z " fill="#AAE2FF" transform="translate(127,100)"/>
<path d="M0 0 C3 1 3 1 3 1 Z " fill="#A9E9E9" transform="translate(130,99)"/>
<path d="M0 0 C3 1 3 1 3 1 Z " fill="#7FE9FF" transform="translate(133,98)"/>
<path d="M0 0 C3 1 3 1 3 1 Z " fill="#54BFFF" transform="translate(136,97)"/>
<path d="M0 0 C3 1 3 1 3 1 Z " fill="#54FFFF" transform="translate(84,97)"/>
<path d="M0 0 C3 1 3 1 3 1 Z " fill="#5494FF" transform="translate(139,96)"/>
<path d="M0 0 C3 1 3 1 3 1 Z " fill="#7FE9E9" transform="translate(87,96)"/>
<path d="M0 0 C3 1 3 1 3 1 Z " fill="#AAE2E2" transform="translate(90,95)"/>
<path d="M0 0 C3 1 3 1 3 1 Z " fill="#5494FF" transform="translate(144,94)"/>
<path d="M0 0 C3 1 3 1 3 1 Z " fill="#9BCDCD" transform="translate(93,94)"/>
<path d="M0 0 C3 1 3 1 3 1 Z " fill="#AAE2E2" transform="translate(96,93)"/>
<path d="M0 0 C3 1 3 1 3 1 Z " fill="#B8CDFF" transform="translate(150,92)"/>
<path d="M0 0 C3 1 3 1 3 1 Z " fill="#AAFFFF" transform="translate(99,92)"/>
<path d="M0 0 C3 1 3 1 3 1 Z " fill="#C6FFFF" transform="translate(153,91)"/>
<path d="M0 0 C3 1 3 1 3 1 Z " fill="#AAFFFF" transform="translate(102,91)"/>
<path d="M0 0 C3 1 3 1 3 1 Z " fill="#C6E2FF" transform="translate(156,90)"/>
<path d="M0 0 C3 1 3 1 3 1 Z " fill="#AAFFFF" transform="translate(105,90)"/>
<path d="M0 0 C3 1 3 1 3 1 Z " fill="#AAE2FF" transform="translate(159,89)"/>
<path d="M0 0 C3 1 3 1 3 1 Z " fill="#AAFFFF" transform="translate(108,89)"/>
<path d="M0 0 C3 1 3 1 3 1 Z " fill="#7F94E9" transform="translate(162,88)"/>
<path d="M0 0 C3 1 3 1 3 1 Z " fill="#71E2FF" transform="translate(111,88)"/>
<path d="M0 0 C3 1 3 1 3 1 Z " fill="#6A94FF" transform="translate(165,87)"/>
<path d="M0 0 C3 1 3 1 3 1 Z " fill="#71E2E2" transform="translate(114,87)"/>
<path d="M0 0 C3 1 3 1 3 1 Z " fill="#63E9E9" transform="translate(117,86)"/>
<path d="M0 0 C3 1 3 1 3 1 Z " fill="#C6E2FF" transform="translate(170,85)"/>
<path d="M0 0 C3 1 3 1 3 1 Z " fill="#B8FFFF" transform="translate(120,85)"/>
<path d="M0 0 C3 1 3 1 3 1 Z " fill="#C6E2FF" transform="translate(173,84)"/>
<path d="M0 0 C3 1 3 1 3 1 Z " fill="#7FFFFF" transform="translate(123,84)"/>
<path d="M0 0 C3 1 3 1 3 1 Z " fill="#BFE9E9" transform="translate(176,83)"/>
<path d="M0 0 C3 1 3 1 3 1 Z " fill="#3F9494" transform="translate(131,81)"/>
<path d="M0 0 C3 1 3 1 3 1 Z " fill="#3F9494" transform="translate(134,80)"/>
<path d="M0 0 C3 1 3 1 3 1 Z " fill="#71E2E2" transform="translate(137,79)"/>
<path d="M0 0 C3 1 3 1 3 1 Z " fill="#71D4D4" transform="translate(140,78)"/>
<path d="M0 0 C3 1 3 1 3 1 Z " fill="#71E2E2" transform="translate(143,77)"/>
<path d="M0 0 C3 1 3 1 3 1 Z " fill="#71FFFF" transform="translate(146,76)"/>
<path d="M0 0 C3 1 3 1 3 1 Z " fill="#86CDCD" transform="translate(149,75)"/>
<path d="M0 0 C3 1 3 1 3 1 Z " fill="#3FE9E9" transform="translate(160,71)"/>
<path d="M0 0 C3 1 3 1 3 1 Z " fill="#3F9494" transform="translate(163,70)"/>
<path d="M0 0 C3 1 3 1 3 1 Z " fill="#AAFFFF" transform="translate(29,70)"/>
<path d="M0 0 C3 1 3 1 3 1 Z " fill="#3F9494" transform="translate(166,69)"/>
<path d="M0 0 C3 1 3 1 3 1 Z " fill="#AAE2E2" transform="translate(32,69)"/>
<path d="M0 0 C3 1 3 1 3 1 Z " fill="#7FBFBF" transform="translate(169,68)"/>
<path d="M0 0 C3 1 3 1 3 1 Z " fill="#AAE2E2" transform="translate(35,68)"/>
<path d="M0 0 C3 1 3 1 3 1 Z " fill="#8DFFFF" transform="translate(172,67)"/>
<path d="M0 0 C3 1 3 1 3 1 Z " fill="#B8FFFF" transform="translate(38,67)"/>
<path d="M0 0 C3 1 3 1 3 1 Z " fill="#AAFFFF" transform="translate(41,66)"/>
<path d="M0 0 C3 1 3 1 3 1 Z " fill="#AAE2E2" transform="translate(44,65)"/>
<path d="M0 0 C3 1 3 1 3 1 Z " fill="#9BFFFF" transform="translate(47,64)"/>
<path d="M0 0 C3 1 3 1 3 1 Z " fill="#7FE9E9" transform="translate(50,63)"/>
<path d="M0 0 C3 1 3 1 3 1 Z " fill="#54E9E9" transform="translate(53,62)"/>
<path d="M0 0 C3 1 3 1 3 1 Z " fill="#54D4D4" transform="translate(56,61)"/>
<path d="M0 0 C3 1 3 1 3 1 Z " fill="#54BFE9" transform="translate(59,60)"/>
<path d="M0 0 C3 1 3 1 3 1 Z " fill="#7FFFFF" transform="translate(62,59)"/>
<path d="M0 0 C3 1 3 1 3 1 Z " fill="#54BFBF" transform="translate(65,58)"/>
<path d="M0 0 C3 1 3 1 3 1 Z " fill="#5494E9" transform="translate(68,57)"/>
<path d="M0 0 C3 1 3 1 3 1 Z " fill="#B8E9E9" transform="translate(76,54)"/>
<path d="M0 0 C3 1 3 1 3 1 Z " fill="#B8FFFF" transform="translate(79,53)"/>
<path d="M0 0 C3 1 3 1 3 1 Z " fill="#B8E9E9" transform="translate(82,52)"/>
<path d="M0 0 C3 1 3 1 3 1 Z " fill="#C6FFFF" transform="translate(85,51)"/>
<path d="M0 0 C3 1 3 1 3 1 Z " fill="#AAFFFF" transform="translate(88,50)"/>
<path d="M0 0 C3 1 3 1 3 1 Z " fill="#AAE2E2" transform="translate(91,49)"/>
<path d="M0 0 C3 1 3 1 3 1 Z " fill="#AAFFFF" transform="translate(94,48)"/>
<path d="M0 0 C3 1 3 1 3 1 Z " fill="#B8FFFF" transform="translate(97,47)"/>
<path d="M0 0 C3 1 3 1 3 1 Z " fill="#7FE9E9" transform="translate(100,46)"/>
<path d="M0 0 C3 1 3 1 3 1 Z " fill="#3F6A6A" transform="translate(131,17)"/>
<path d="M0 0 C3 1 3 1 3 1 Z " fill="#3F9494" transform="translate(128,16)"/>
<path d="M0 0 C3 1 3 1 3 1 Z " fill="#3FCDCD" transform="translate(125,15)"/>
<path d="M0 0 C3 1 3 1 3 1 Z " fill="#3FB1B1" transform="translate(80,15)"/>
<path d="M0 0 C2 1 2 1 2 1 Z " fill="#9FBFDF" transform="translate(72,170)"/>
<path d="M0 0 C2 1 2 1 2 1 Z " fill="#3F94FF" transform="translate(70,169)"/>
<path d="M0 0 C2 1 2 1 2 1 Z " fill="#557FFF" transform="translate(68,168)"/>
<path d="M0 0 C2 1 2 1 2 1 Z " fill="#3FAAFF" transform="translate(66,167)"/>
<path d="M0 0 C2 1 2 1 2 1 Z " fill="#7FAAFF" transform="translate(64,166)"/>
<path d="M0 0 C2 1 2 1 2 1 Z " fill="#3F7FFF" transform="translate(61,164)"/>
<path d="M0 0 C2 1 2 1 2 1 Z " fill="#2A557F" transform="translate(59,163)"/>
<path d="M0 0 C2 1 2 1 2 1 Z " fill="#7FAAFF" transform="translate(55,160)"/>
<path d="M0 0 C2 1 2 1 2 1 Z " fill="#7FDFFF" transform="translate(127,144)"/>
<path d="M0 0 C2 1 2 1 2 1 Z " fill="#BFDFFF" transform="translate(141,139)"/>
<path d="M0 0 C2 1 2 1 2 1 Z " fill="#7F9FBF" transform="translate(144,138)"/>
<path d="M0 0 C2 1 2 1 2 1 Z " fill="#7FD4FF" transform="translate(152,135)"/>
<path d="M0 0 C2 1 2 1 2 1 Z " fill="#BFDFFF" transform="translate(155,134)"/>
<path d="M0 0 C2 1 2 1 2 1 Z " fill="#5FDFFF" transform="translate(37,131)"/>
<path d="M0 0 C2 1 2 1 2 1 Z " fill="#5FDFFF" transform="translate(166,130)"/>
<path d="M0 0 C2 1 2 1 2 1 Z " fill="#5FBFFF" transform="translate(40,130)"/>
<path d="M0 0 C2 1 2 1 2 1 Z " fill="#7F9FFF" transform="translate(169,129)"/>
<path d="M0 0 C2 1 2 1 2 1 Z " fill="#5FDFFF" transform="translate(60,123)"/>
<path d="" fill="#D4FFFF" transform="translate(0,0)"/>
<path d="M0 0 C2 1 2 1 2 1 Z " fill="#5FDFFF" transform="translate(63,122)"/>
<path d="M0 0 C2 1 2 1 2 1 Z " fill="#5FDFFF" transform="translate(66,121)"/>
<path d="" fill="#DFDFFF" transform="translate(0,0)"/>
<path d="M0 0 C2 1 2 1 2 1 Z " fill="#4A94D4" transform="translate(69,120)"/>
<path d="M0 0 C2 1 2 1 2 1 Z " fill="#DFFFFF" transform="translate(30,116)"/>
<path d="M0 0 C2 1 2 1 2 1 Z " fill="#5F7FFF" transform="translate(95,111)"/>
<path d="M0 0 C2 1 2 1 2 1 Z " fill="#BFDFFF" transform="translate(101,109)"/>
<path d="M0 0 C2 1 2 1 2 1 Z " fill="#7FD4D4" transform="translate(50,109)"/>
<path d="M0 0 C2 1 2 1 2 1 Z " fill="#BFDFFF" transform="translate(104,108)"/>
<path d="M0 0 C2 1 2 1 2 1 Z " fill="#BFFFFF" transform="translate(53,108)"/>
<path d="M0 0 C2 1 2 1 2 1 Z " fill="#AAD4FF" transform="translate(107,107)"/>
<path d="M0 0 C2 1 2 1 2 1 Z " fill="#7FFFFF" transform="translate(56,107)"/>
<path d="M0 0 C2 1 2 1 2 1 Z " fill="#7FDFDF" transform="translate(76,100)"/>
<path d="M0 0 C2 1 2 1 2 1 Z " fill="#7FDFDF" transform="translate(79,99)"/>
<path d="M0 0 C2 1 2 1 2 1 Z " fill="#7FDFDF" transform="translate(82,98)"/>
<path d="M0 0 C2 1 2 1 2 1 Z " fill="#7FDFDF" transform="translate(142,95)"/>
<path d="M0 0 C2 1 2 1 2 1 Z " fill="#D4FFFF" transform="translate(148,93)"/>
<path d="M0 0 C2 1 2 1 2 1 Z " fill="#DFDFFF" transform="translate(168,86)"/>
<path d="M0 0 C2 1 2 1 2 1 Z " fill="#5FDFDF" transform="translate(126,83)"/>
<path d="M0 0 C2 1 2 1 2 1 Z " fill="#5FDFDF" transform="translate(129,82)"/>
<path d="M0 0 C2 1 2 1 2 1 Z " fill="#74B4B4" transform="translate(152,74)"/>
<path d="M0 0 C2 1 2 1 2 1 Z " fill="#74B4B4" transform="translate(155,73)"/>
<path d="M0 0 C2 1 2 1 2 1 Z " fill="#5FDFDF" transform="translate(158,72)"/>
<path d="" fill="#94FFFF" transform="translate(0,0)"/>
<path d="M0 0 C2 1 2 1 2 1 Z " fill="#BFFFFF" transform="translate(71,56)"/>
<path d="M0 0 C2 1 2 1 2 1 Z " fill="#7FDFDF" transform="translate(74,55)"/>
<path d="M0 0 C2 1 2 1 2 1 Z " fill="#7FD4D4" transform="translate(148,26)"/>
<path d="M0 0 C2 1 2 1 2 1 Z " fill="#3F7F7F" transform="translate(145,24)"/>
<path d="M0 0 C2 1 2 1 2 1 Z " fill="#7FDFDF" transform="translate(88,23)"/>
<path d="M0 0 C2 1 2 1 2 1 Z " fill="#7FDFDF" transform="translate(142,22)"/>
<path d="M0 0 C2 1 2 1 2 1 Z " fill="#2AFFFF" transform="translate(86,22)"/>
<path d="M0 0 C2 1 2 1 2 1 Z " fill="#3FFFFF" transform="translate(140,21)"/>
<path d="M0 0 C2 1 2 1 2 1 Z " fill="#9FDFDF" transform="translate(84,21)"/>
<path d="M0 0 C2 1 2 1 2 1 Z " fill="#2A7F7F" transform="translate(138,20)"/>
<path d="M0 0 C2 1 2 1 2 1 Z " fill="#2ABFBF" transform="translate(136,19)"/>
<path d="M0 0 C2 1 2 1 2 1 Z " fill="#3FD4D4" transform="translate(134,18)"/>
<path d="" fill="#7FBFBF" transform="translate(0,0)"/>
<path d="" fill="#7FFFFF" transform="translate(0,0)"/>
<path d="" fill="#3FBFFF" transform="translate(0,0)"/>
<path d="" fill="#7FFFFF" transform="translate(0,0)"/>
<path d="" fill="#3FBFFF" transform="translate(0,0)"/>
<path d="" fill="#55AAAA" transform="translate(0,0)"/>
<path d="" fill="#7FBFBF" transform="translate(0,0)"/>
<path d="" fill="#7FBFFF" transform="translate(0,0)"/>
<path d="" fill="#3FBFFF" transform="translate(0,0)"/>
<path d="" fill="#7FBFFF" transform="translate(0,0)"/>
<path d="" fill="#55AAFF" transform="translate(0,0)"/>
<path d="" fill="#3F7FBF" transform="translate(0,0)"/>
<path d="" fill="#0000FF" transform="translate(0,0)"/>
<path d="" fill="#00FFFF" transform="translate(0,0)"/>
<path d="" fill="#FFFFFF" transform="translate(0,0)"/>
<path d="" fill="#FFFFFF" transform="translate(0,0)"/>
<path d="" fill="#FFFFFF" transform="translate(0,0)"/>
<path d="" fill="#FFFFFF" transform="translate(0,0)"/>
<path d="" fill="#55FFFF" transform="translate(0,0)"/>
<path d="" fill="#00FFFF" transform="translate(0,0)"/>
<path d="" fill="#AAFFFF" transform="translate(0,0)"/>
<path d="" fill="#7FFFFF" transform="translate(0,0)"/>
<path d="" fill="#FFFFFF" transform="translate(0,0)"/>
<path d="" fill="#7FFFFF" transform="translate(0,0)"/>
<path d="" fill="#7FFFFF" transform="translate(0,0)"/>
<path d="" fill="#55FFFF" transform="translate(0,0)"/>
<path d="" fill="#3FBFBF" transform="translate(0,0)"/>
<path d="" fill="#55FFFF" transform="translate(0,0)"/>
<path d="" fill="#55AAAA" transform="translate(0,0)"/>
<path d="" fill="#66CCCC" transform="translate(0,0)"/>
<path d="" fill="#3FBFBF" transform="translate(0,0)"/>
<path d="" fill="#55FFFF" transform="translate(0,0)"/>
<path d="" fill="#7FBFBF" transform="translate(0,0)"/>
<path d="" fill="#3FBFBF" transform="translate(0,0)"/>
<path d="" fill="#55FFFF" transform="translate(0,0)"/>
</svg>
